<?xml version="1.0" encoding="UTF-8"?>
<svg width="80px" height="90px" viewBox="0 0 80 90" version="1.1" xmlns="http://www.w3.org/2000/svg" xmlns:xlink="http://www.w3.org/1999/xlink">
    <!-- Generator: Sketch 52.4 (67378) - http://www.bohemiancoding.com/sketch -->
    <title>Rectangle Copy 12</title>
    <desc>Created with Sketch.</desc>
    <defs>
        <rect id="path-1" x="0" y="0" width="80" height="90" rx="2"></rect>
        <path d="M31.2056738,45.0821687 C26.0047281,48.8207019 20.8037825,51.8115284 15.6028369,51.8115284 C10.4018913,51.8115284 5.20094563,48.8207019 -1.45519152e-11,45.0821687 C4.28699371,43.7925994 6.46148001,41.8675674 6.5234589,39.3070727 C6.52218957,38.8506063 6.52003421,38.202451 6.51699281,36.9851825 C6.51650991,36.7919122 6.51600468,36.5938936 6.51547712,36.3913918 C6.50693922,33.127523 6.49303017,28.8219091 6.4735876,24.4466072 C2.40775256,19.2378897 3.90129481,13.1312069 5.17552272,13.2835004 C6.73881411,13.4703421 20.2715754,0.777758601 22.8673413,0.128325881 C25.4631072,-0.521106838 32.0567376,1.57716912 33.1914894,7.43033474 C34.3262411,13.2835004 34.8005584,28.0369407 30.4964539,33.9271888 C29.2716492,35.6033571 27.3428187,36.258958 24.7099624,35.8939917 C24.7064021,37.1189658 24.6989609,37.8064612 24.6808511,39.1939789 C24.7144797,41.8714906 26.8894206,43.7939137 31.2056738,45.0821687 Z" id="path-3"></path>
        <path d="M5.94166667,2.56833288 L7.4,31.9703947 L0.4,31.9703947 L1.85833333,2.56833288 C2.76574074,1.50304078 3.4462963,0.970394737 3.9,0.970394737 C4.3537037,0.970394737 5.03425926,1.50304078 5.94166667,2.56833288 Z" id="path-5"></path>
    </defs>
    <g id="Components" stroke="none" stroke-width="1" fill="none" fill-rule="evenodd">
        <g id="Attendance-List-/-Unknown-User" transform="translate(-30.000000, -16.000000)">
            <g id="Rectangle-Copy-12" transform="translate(30.000000, 16.000000)">
                <mask id="mask-2" fill="white">
                    <use xlink:href="#path-1"></use>
                </mask>
                <use id="Rectangle-Copy" fill="#EBEBF0" xlink:href="#path-1"></use>
                <g id="Path-48" mask="url(#mask-2)">
                    <g transform="translate(40.581560, 43.486240) scale(-1, 1) translate(-40.581560, -43.486240) translate(23.581560, 17.486240)">
                        <mask id="mask-4" fill="white">
                            <use xlink:href="#path-3"></use>
                        </mask>
                        <use id="Combined-Shape" stroke="none" fill="#FFFFFF" fill-rule="evenodd" xlink:href="#path-3"></use>
                    </g>
                </g>
                <path d="M24.7818883,42.020364 C22.8273292,37.3741627 14.9946543,27.9121069 21.7460812,22.0239171 C24.0155847,11.0887075 36.554938,12.299025 44.9237323,14.8225349 C50.5484039,16.5185874 54.7957265,19.8695548 55.7038741,17.3460448 C61.377633,22.0239171 58.5363167,26.5989145 54.7957265,27.9121069 C51.4010276,29.1038688 45.6604524,30.2954218 35.9005425,29.1738619 C34.1570298,28.9735061 34.5221575,34.2511614 33.5904075,34.8218283 C32.1927824,35.6778287 31.1077833,30.2954218 27.2758335,31.9115252 C23.4438837,33.5276285 25.7177124,41.0213098 29.8311875,41.0213098 C31.2496273,41.0213098 31.9588471,44.8757013 28.1290599,46.6982362 C25.3492642,48.0487488 26.0518949,45.0393088 24.7818883,42.020364 Z" id="Path-22" fill="#D1D1DF" fill-rule="nonzero" mask="url(#mask-2)" transform="translate(38.983143, 30.069582) scale(-1, 1) translate(-38.983143, -30.069582) "></path>
                <path d="M70.75,71.1922215 C72.5482654,74.9065198 73.9649321,81.0468707 75,89.6132741 L7,89.6132741 C8.03556287,81.0459108 9.45222953,74.9055599 11.25,71.1922215 C13.0477705,67.4788831 19.1960352,63.9001069 29.6947943,60.4558928 C38.3969108,63.909293 43.7222,63.9085941 52.2967274,60.4539474 C62.8006437,63.8984985 68.9517346,67.4779232 70.75,71.1922215 Z" id="Combined-Shape" fill="#D1D1DF" fill-rule="nonzero" mask="url(#mask-2)"></path>
                <g id="Group-22" mask="url(#mask-2)">
                    <g transform="translate(37.600000, 60.029605)">
                        <mask id="mask-6" fill="white">
                            <use xlink:href="#path-5"></use>
                        </mask>
                        <use id="Mask" stroke="none" fill="#FFFFFF" fill-rule="nonzero" xlink:href="#path-5"></use>
                    </g>
                </g>
                <path d="M41.5,60.7186147 L38.5952381,66 L29,60.0625 L31.7857143,56 L41.5,59.6230436 L51.2142857,56 L54,60.0625 L44.4047619,66 L41.5,60.7186147 Z" id="Combined-Shape" fill="#EBEBF0" mask="url(#mask-2)"></path>
            </g>
        </g>
    </g>
</svg>