<?xml version="1.0" encoding="UTF-8"?>
<svg width="25px" height="24px" viewBox="0 0 25 24" version="1.1" xmlns="http://www.w3.org/2000/svg" xmlns:xlink="http://www.w3.org/1999/xlink">
    <!-- Generator: Sketch 52.4 (67378) - http://www.bohemiancoding.com/sketch -->
    <title>Icons / Attendance</title>
    <desc>Created with Sketch.</desc>
    <g id="Components" stroke="none" stroke-width="1" fill="none" fill-rule="evenodd">
        <g id="Navbar-/-1-Active" transform="translate(-51.000000, -16.000000)" fill="#000000" fill-rule="nonzero">
            <g id="Item-1" transform="translate(0.000000, 1.000000)">
                <g id="Icons-/-Attendance" transform="translate(47.000000, 11.000000)">
                    <path d="M9.33333333,14 C6.7560045,14 4.66666667,11.9106622 4.66666667,9.33333333 C4.66666667,6.7560045 6.7560045,4.66666667 9.33333333,4.66666667 C11.9106622,4.66666667 14,6.7560045 14,9.33333333 C14,11.9106622 11.9106622,14 9.33333333,14 Z M9.33333333,12.6666667 C11.1742825,12.6666667 12.6666667,11.1742825 12.6666667,9.33333333 C12.6666667,7.49238417 11.1742825,6 9.33333333,6 C7.49238417,6 6,7.49238417 6,9.33333333 C6,11.1742825 7.49238417,12.6666667 9.33333333,12.6666667 Z M9.33333333,27.3333333 C6.7560045,27.3333333 4.66666667,25.2439955 4.66666667,22.6666667 C4.66666667,20.0893378 6.7560045,18 9.33333333,18 C11.9106622,18 14,20.0893378 14,22.6666667 C14,25.2439955 11.9106622,27.3333333 9.33333333,27.3333333 Z M9.33333333,26 C11.1742825,26 12.6666667,24.5076158 12.6666667,22.6666667 C12.6666667,20.8257175 11.1742825,19.3333333 9.33333333,19.3333333 C7.49238417,19.3333333 6,20.8257175 6,22.6666667 C6,24.5076158 7.49238417,26 9.33333333,26 Z M16.6853526,10.3965245 C16.3171627,10.3965245 16.0186859,10.0980477 16.0186859,9.72985787 C16.0186859,9.36166803 16.3171627,9.0631912 16.6853526,9.0631912 L27.7386869,9.0631912 C28.1068768,9.0631912 28.4053536,9.36166803 28.4053536,9.72985787 C28.4053536,10.0980477 28.1068768,10.3965245 27.7386869,10.3965245 L16.6853526,10.3965245 Z M16.6853526,24 C16.3171627,24 16.0186859,23.7015232 16.0186859,23.3333333 C16.0186859,22.9651435 16.3171627,22.6666667 16.6853526,22.6666667 L27.7386869,22.6666667 C28.1068768,22.6666667 28.4053536,22.9651435 28.4053536,23.3333333 C28.4053536,23.7015232 28.1068768,24 27.7386869,24 L16.6853526,24 Z" id="Combined-Shape"></path>
                </g>
            </g>
        </g>
    </g>
</svg>