<?xml version="1.0" encoding="UTF-8"?>
<svg width="22px" height="20px" viewBox="0 0 22 20" version="1.1" xmlns="http://www.w3.org/2000/svg" xmlns:xlink="http://www.w3.org/1999/xlink">
    <!-- Generator: Sketch 52.4 (67378) - http://www.bohemiancoding.com/sketch -->
    <title>Icons / Calendar</title>
    <desc>Created with Sketch.</desc>
    <g id="Components" stroke="none" stroke-width="1" fill="none" fill-rule="evenodd">
        <g id="Inputfields-/-Date-Selection-/-Active" transform="translate(-21.000000, -14.000000)">
            <g id="Icons-/-Calendar" transform="translate(20.000000, 12.000000)">
                <rect id="Rectangle" x="0" y="0" width="24" height="24"></rect>
                <path d="M19.5,3.99999997 L22.5,3.99999997 L22.5,19.75 C22.5,20.9926407 21.4926407,22 20.25,22 L3.74999997,22 C2.50735928,22 1.49999997,20.9926407 1.49999997,19.75 L1.49999997,3.99999997 L4.49999998,3.99999997 L4.49999998,2.49999997 L5.99999998,2.49999997 L5.99999998,3.99999997 L18,3.99999997 L18,2.49999997 L19.5,2.49999997 L19.5,3.99999997 Z M21,19.75 L21,5.49999998 L19.5,5.49999998 L19.5,7.74999998 L18,7.74999998 L18,5.49999998 L5.99999998,5.49999998 L5.99999998,7.74999998 L4.49999998,7.74999998 L4.49999998,5.49999998 L2.99999997,5.49999998 L2.99999997,19.75 C2.99999997,20.1642136 3.33578641,20.5 3.74999997,20.5 L20.25,20.5 C20.6642136,20.5 21,20.1642136 21,19.75 Z M4.49999998,13.75 L4.49999998,9.24999999 L8.99999999,9.24999999 L8.99999999,13.75 L4.49999998,13.75 Z M5.99999998,10.75 L5.99999998,12.25 L7.49999999,12.25 L7.49999999,10.75 L5.99999998,10.75 Z M9.74999999,13.75 L9.74999999,9.24999999 L14.25,9.24999999 L14.25,13.75 L9.74999999,13.75 Z M11.25,10.75 L11.25,12.25 L12.75,12.25 L12.75,10.75 L11.25,10.75 Z M15,13.75 L15,9.24999999 L19.5,9.24999999 L19.5,13.75 L15,13.75 Z M16.5,10.75 L16.5,12.25 L18,12.25 L18,10.75 L16.5,10.75 Z M4.49999998,19 L4.49999998,14.5 L8.99999999,14.5 L8.99999999,19 L4.49999998,19 Z M5.99999998,16 L5.99999998,17.5 L7.49999999,17.5 L7.49999999,16 L5.99999998,16 Z M9.74999999,19 L9.74999999,14.5 L14.25,14.5 L14.25,19 L9.74999999,19 Z M11.25,16 L11.25,17.5 L12.75,17.5 L12.75,16 L11.25,16 Z" id="Style" fill="#252C32" fill-rule="evenodd"></path>
            </g>
        </g>
    </g>
</svg>