<?xml version="1.0" encoding="UTF-8"?>
<svg width="20px" height="20px" viewBox="0 0 20 20" version="1.1" xmlns="http://www.w3.org/2000/svg" xmlns:xlink="http://www.w3.org/1999/xlink">
    <!-- Generator: Sketch 52.4 (67378) - http://www.bohemiancoding.com/sketch -->
    <title>Icons / Attendance</title>
    <desc>Created with Sketch.</desc>
    <g id="Final-Handoff" stroke="none" stroke-width="1" fill="none" fill-rule="evenodd">
        <g id="04---User-Settings-1" transform="translate(-32.000000, -52.000000)" fill="#FFFFFF" fill-rule="nonzero">
            <g id="Icons-/-Close" transform="translate(30.000000, 50.000000)">
                <path d="M12.7366145,12.0295077 L21.4125688,20.705462 C21.6078309,20.9007241 21.6078309,21.2173066 21.4125688,21.4125688 C21.2173066,21.6078309 20.9007241,21.6078309 20.705462,21.4125688 L12.0295077,12.7366145 L3.35355339,21.4125688 C3.15829124,21.6078309 2.84170876,21.6078309 2.64644661,21.4125688 C2.45118446,21.2173066 2.45118446,20.9007241 2.64644661,20.705462 L11.3224009,12.0295077 L2.64644661,3.35355339 C2.45118446,3.15829124 2.45118446,2.84170876 2.64644661,2.64644661 C2.84170876,2.45118446 3.15829124,2.45118446 3.35355339,2.64644661 L12.0295077,11.3224009 L20.705462,2.64644661 C20.9007241,2.45118446 21.2173066,2.45118446 21.4125688,2.64644661 C21.6078309,2.84170876 21.6078309,3.15829124 21.4125688,3.35355339 L12.7366145,12.0295077 Z" id="Combined-Shape"></path>
            </g>
        </g>
    </g>
</svg>