<?xml version="1.0" encoding="UTF-8"?>
<svg width="24px" height="26px" viewBox="0 0 24 26" version="1.1" xmlns="http://www.w3.org/2000/svg" xmlns:xlink="http://www.w3.org/1999/xlink">
    <!-- Generator: Sketch 52.4 (67378) - http://www.bohemiancoding.com/sketch -->
    <title>Icons / Attendance Copy</title>
    <desc>Created with Sketch.</desc>
    <g id="Components" stroke="none" stroke-width="1" fill="none" fill-rule="evenodd">
        <g id="Navbar-/-2-Active" transform="translate(-176.000000, -15.000000)" fill="#000000" fill-rule="nonzero">
            <g id="Item-2" transform="translate(125.000000, 1.000000)">
                <g id="Icons-/-Export" transform="translate(47.000000, 11.000000)">
                    <path d="M15.3333333,5.22822916 L13.2950796,7.26648289 C13.0347301,7.52683242 12.6126201,7.52683242 12.3522706,7.26648289 C12.091921,7.00613336 12.091921,6.58402338 12.3522706,6.32367385 L15.5285955,3.14734893 C15.788945,2.8869994 16.211055,2.8869994 16.4714045,3.14734893 L19.6477294,6.32367385 C19.908079,6.58402338 19.908079,7.00613336 19.6477294,7.26648289 C19.3873799,7.52683242 18.9652699,7.52683242 18.7049204,7.26648289 L16.6666667,5.22822916 L16.6666667,14.6666667 C16.6666667,15.0348565 16.3681898,15.3333333 16,15.3333333 C15.6318102,15.3333333 15.3333333,15.0348565 15.3333333,14.6666667 L15.3333333,5.22822916 Z M20.0316582,11.3333333 C19.6634684,11.3333333 19.3649916,11.0348565 19.3649916,10.6666667 C19.3649916,10.2984768 19.6634684,10 20.0316582,10 L24,10 C25.8679311,10 27.3333333,11.7318391 27.3333333,13.8181818 L27.3333333,24.8484848 C27.3333333,26.9348276 25.8679311,28.6666667 24,28.6666667 L8,28.6666667 C6.13206895,28.6666667 4.66666667,26.9348276 4.66666667,24.8484848 L4.66666667,13.8181818 C4.66666667,11.7318391 6.13206895,10 8,10 L12.0108842,10 C12.379074,10 12.6775508,10.2984768 12.6775508,10.6666667 C12.6775508,11.0348565 12.379074,11.3333333 12.0108842,11.3333333 L8,11.3333333 C6.92241238,11.3333333 6,12.4234571 6,13.8181818 L6,24.8484848 C6,26.2432096 6.92241238,27.3333333 8,27.3333333 L24,27.3333333 C25.0775876,27.3333333 26,26.2432096 26,24.8484848 L26,13.8181818 C26,12.4234571 25.0775876,11.3333333 24,11.3333333 L20.0316582,11.3333333 Z" id="Combined-Shape"></path>
                </g>
            </g>
        </g>
    </g>
</svg>