<?xml version="1.0" encoding="UTF-8"?>
<svg width="26px" height="24px" viewBox="0 0 26 24" version="1.1" xmlns="http://www.w3.org/2000/svg" xmlns:xlink="http://www.w3.org/1999/xlink">
    <!-- Generator: Sketch 52.4 (67378) - http://www.bohemiancoding.com/sketch -->
    <title>Style</title>
    <desc>Created with Sketch.</desc>
    <g id="Components" stroke="none" stroke-width="1" fill="none" fill-rule="evenodd">
        <g id="Buttons-/-Upload-Photo-/-Active" transform="translate(-12.000000, -13.000000)" fill="#FFFFFF" fill-rule="nonzero">
            <g id="Icons-/-Photo" transform="translate(12.000000, 13.000000)">
                <path d="M18.60875,4.12499998 L25.25,4.12499998 L25.25,20.75 C25.25,22.1997475 24.0747475,23.375 22.625,23.375 L3.37499997,23.375 C1.9252525,23.375 0.749999962,22.1997475 0.749999962,20.75 L0.749999962,4.12499998 L7.39124998,4.12499998 L10.375,1.14124997 C10.7016815,0.812610652 11.1453703,0.626953655 11.60875,0.624999964 L14.39125,0.624999964 C14.8546297,0.626953655 15.2983185,0.812610652 15.625,1.14124997 L18.60875,4.12499998 Z M11.60875,2.37499997 L9.85874999,4.12499998 L16.14125,4.12499998 L14.39125,2.37499997 L11.60875,2.37499997 Z M23.5,20.75 L23.5,5.87499998 L2.49999997,5.87499998 L2.49999997,20.75 C2.49999997,21.2332492 2.89175081,21.625 3.37499997,21.625 L22.625,21.625 C23.1082492,21.625 23.5,21.2332492 23.5,20.75 Z M13,7.62499999 C16.3827441,7.62499999 19.125,10.3672559 19.125,13.75 C19.125,17.1327441 16.3827441,19.875 13,19.875 C9.6172559,19.875 6.87499998,17.1327441 6.87499998,13.75 C6.87499998,10.3672559 9.6172559,7.62499999 13,7.62499999 Z M13,18.125 C14.1603221,18.125 15.2731205,17.6640638 16.0935922,16.8435922 C16.9140638,16.0231205 17.375,14.9103222 17.375,13.75 C17.375,11.3337542 15.4162458,9.37499999 13,9.37499999 C10.5837542,9.37499999 8.62499999,11.3337542 8.62499999,13.75 C8.62499999,16.1662458 10.5837542,18.125 13,18.125 Z M13,11.125 C14.4497475,11.125 15.625,12.3002525 15.625,13.75 C15.625,15.1997475 14.4497475,16.375 13,16.375 C11.5502525,16.375 10.375,15.1997475 10.375,13.75 C10.375,12.3002525 11.5502525,11.125 13,11.125 Z M13,14.625 C13.4832492,14.625 13.875,14.2332492 13.875,13.75 C13.875,13.2667508 13.4832492,12.875 13,12.875 C12.5167508,12.875 12.125,13.2667508 12.125,13.75 C12.125,14.2332492 12.5167508,14.625 13,14.625 Z M19.125,7.62499999 L21.75,7.62499999 L21.75,9.37499999 L19.125,9.37499999 L19.125,7.62499999 Z" id="Style"></path>
            </g>
        </g>
    </g>
</svg>