<?xml version="1.0" encoding="UTF-8"?>
<svg width="20px" height="20px" viewBox="0 0 20 20" version="1.1" xmlns="http://www.w3.org/2000/svg" xmlns:xlink="http://www.w3.org/1999/xlink">
    <!-- Generator: Sketch 52.4 (67378) - http://www.bohemiancoding.com/sketch -->
    <title>Outlined/UI/search</title>
    <desc>Created with Sketch.</desc>
    <g id="Components" stroke="none" stroke-width="1" fill="none" fill-rule="evenodd">
        <g id="Inputfields-/-Search-/-Active" transform="translate(-20.000000, -14.000000)" fill="#252C32">
            <g id="Outlined/UI/search" transform="translate(20.000000, 14.000000)">
                <path d="M19.425625,18.449375 L12.550625,11.574375 C14.8673605,8.73754592 14.5533355,4.58253314 11.8365508,2.12612441 C9.11976614,-0.330284314 4.95422085,-0.225520999 2.36434993,2.36434993 C-0.225520999,4.95422085 -0.330284314,9.11976614 2.12612441,11.8365508 C4.58253314,14.5533355 8.73754592,14.8673605 11.574375,12.550625 L18.449375,19.425625 L19.425625,18.449375 Z M1.74999997,7.24999999 C1.74999997,4.21243386 4.21243386,1.74999997 7.24999999,1.74999997 C10.2875661,1.74999997 12.75,4.21243386 12.75,7.24999999 C12.75,10.2875661 10.2875661,12.75 7.24999999,12.75 C5.79130929,12.75 4.39236277,12.1705374 3.36091268,11.1390873 C2.3294626,10.1076372 1.74999997,8.70869069 1.74999997,7.24999999 Z" id="Style"></path>
            </g>
        </g>
    </g>
</svg>